<svg xmlns="http://www.w3.org/2000/svg" viewBox="0 0 388.3 382.4"><defs><style>.a{fill:#5bc5f2;}.b{fill:#fff;}</style></defs><path class="a" d="M275,258.4c-47.3,0-71.2-12.8-89.9-26.6l-5.5-4.2c-17-12.9-34.5-26.3-79.4-26.3h-.4c-49.3.1-93.2,49-93.7,49.5a3.4,3.4,0,0,1-4.9.3,3.4,3.4,0,0,1-.3-4.9c1.9-2.2,46.5-51.8,98.9-51.9h.4c47.2,0,66.6,14.7,83.6,27.7l5.5,4.2c20.5,15.1,42.9,25.2,85.7,25.2s95.2-54.4,95.7-55a3.5,3.5,0,0,1,5.2,4.8C373.7,203.5,322.2,258.4,275,258.4Z" transform="translate(0 -40.8)"/><path class="a" d="M275,298.6c-47.4,0-71.2-12.7-89.9-26.5l-5.7-4.3c-17-13-34.6-26.5-79.6-26.3-49.3.2-93.2,49.1-93.7,49.6a3.4,3.4,0,0,1-4.9.3,3.4,3.4,0,0,1-.3-4.9c1.9-2.2,46.5-51.8,98.9-52h.9c46.7,0,65.9,14.7,82.9,27.7l5.7,4.3c20.4,15,42.8,25.1,85.7,25.1s96.2-55.4,96.7-56a3.5,3.5,0,0,1,5.2,4.8C374.7,242.7,322.2,298.6,275,298.6Z" transform="translate(0 -40.8)"/><path class="a" d="M275,338.9c-47.3,0-71.2-12.8-89.9-26.6l-5.6-4.3c-16.9-12.9-34.4-26.2-78.8-26.2h-.9c-49.2.2-93.2,49-93.7,49.5a3.4,3.4,0,0,1-4.9.3,3.4,3.4,0,0,1-.3-4.9c1.9-2.1,46.5-51.7,98.9-51.9,47.4-.2,66.8,14.6,83.9,27.7l5.6,4.2c20.5,15.1,42.9,25.2,85.7,25.2s96.2-55.4,96.7-56a3.5,3.5,0,1,1,5.2,4.8C374.7,283,322.2,338.9,275,338.9Z" transform="translate(0 -40.8)"/><path class="a" d="M291.4,293.7l5.5-14.3c3.6-9.5,11.4-35.1,9.1-51.6-7.9,1.4-18.3,2.8-26.6,2.8a123.4,123.4,0,0,1-21-2c-1.6,6.5-3.8,14.8-5.8,21.3-4.3,13.5-22.6,37.1-24.7,39.8l-3.1,4H191.5l5.2-14.2c.2-.4,14.7-40,12.8-65.4-3-3.7-9-11.3-14.7-19.7-3.3-4.9-7.3-10.4-10.8-15.1l-3.8,4.1c-4.2,4.2-10.6,6.6-17.2,6.6a24.3,24.3,0,0,1-15.3-5.1c-11.6-9-10.2-21.3-7.6-34.1.8-3.9.4-7.3-.1-11.3-.9-6.5-1.9-14.6,3.3-24S156.7,97.9,161,94.1c3.2-8.6,10.5-25.5,20.4-33.3,12.2-9.8,33-11.5,35.3-11.6l12.5-.9-1.3,12.5c-1.3,11.5-11.6,25.1-22.3,36.5l4.1,2.1c5.8,3.5,12.9,9.1,20.4,15s24.5,19.2,29.4,19.6h1.7c4.8,0,12.5-1,20.6-2,9.9-1.3,21-2.7,30.3-2.7a67.9,67.9,0,0,1,9,.5c8.8,1.4,17.9,6.4,25.7,14.4,7.4,2.6,20.2,12.8,22.8,50.8.5,8.4,4.3,10.6,4.9,10.8a10.5,10.5,0,0,1-3.7,20.4,12.6,12.6,0,0,1-3.3-.5,26.8,26.8,0,0,1-9-5.8c-2.1,12.9-5,25.5-8.3,33.7-7.5,18.4-21.8,35.6-22.4,36.3l-3.1,3.8Zm31.4-82.6c6.3,12.9,5.3,30.5,2.2,46.1a86.6,86.6,0,0,0,5.7-11.4c6.4-15.9,11.2-54.4,11.2-67.6,0-9.5-12.8-25.9-23.9-27.6a58.3,58.3,0,0,0-5.9-.3c-7.9,0-18.3,1.3-27.6,2.5s-17.1,2.2-23.4,2.2h-3c-11.5-.8-25.8-12.1-41-24-6.9-5.5-13.5-10.7-18.1-13.4s-15.1-5.8-15.2-5.8l-8.7-2c-2.9,2.5-9.5,8.8-13.4,15.9-1.9,3.3-1.6,5.7-.9,11.2.2,1.8.5,3.7.6,5.9a34.1,34.1,0,0,1,18,8.6,9.3,9.3,0,0,0,1.4-3.6,10.5,10.5,0,0,1,2.6-7.6,10.8,10.8,0,0,1,7.3-3.5h.6a10.5,10.5,0,0,1,10.4,9.9c.4,5.9-1.7,11.3-4.3,15.6,4.1,5.4,10.1,13.6,14.7,20.5,7.1,10.3,14.7,19.5,15.5,20.5l2,2.4.4,3c2,14.8-1,33.2-4.7,48.6,3.5-5.4,6.2-10.3,7.2-13.5,3.6-11.5,7.9-29.5,7.9-29.7l2.4-10.3,10.4,2.5c.1.1,14.4,3.5,26.2,3.5s31.5-4.1,31.7-4.2l8.1-1.7ZM159.4,163.7c-.2,3.5.5,4.1,1.2,4.6a4.1,4.1,0,0,0,2.4.8,5,5,0,0,0,2.4-.6l.7-.7A10.5,10.5,0,0,0,159.4,163.7Zm37.1-87.9-2,1.4c-1.8,1.4-3.7,4-5.6,7.1C191.4,81.6,194,78.7,196.5,75.8Z" transform="translate(0 -40.8)"/><path class="b" d="M221.4,55.9l-.5,4.1c-1.4,13.1-19,31.4-27.8,39.9a62.2,62.2,0,0,1,13,5.6c5.4,3.2,12.4,8.6,19.7,14.4,11.6,9.1,26.1,20.6,33.3,21.1h2.1c5.3,0,13.2-1,21.5-2.1,9.8-1.2,20.6-2.6,29.4-2.6a42.5,42.5,0,0,1,8,.5c8.4,1.2,16.5,6.6,22.9,13.6,3.2.6,16.9,5.6,19.6,45.1.9,13.9,9.3,16.9,9.4,16.9a3.5,3.5,0,0,1-1.2,6.8l-1.1-.2c-.5-.1-12.9-4.5-14.1-23-.1-1.7-.3-3.2-.4-4.7-1.6,18.5-5.9,45.8-11.5,59.7-7,17.4-20.7,33.8-21.2,34.4l-1.1,1.3H301.6l1.8-4.8c.2-.4,15.6-40.8,7.9-62.2-6.2,1.2-21.2,3.9-31.9,3.9a135.9,135.9,0,0,1-26.2-3.1c-1.4,5.9-4.5,18.3-7.3,27.3-3.9,12.5-22.7,36.5-23.5,37.6l-1,1.3H201.5l1.8-4.7c.2-.5,16-43.6,12.9-70.7-2.1-2.6-9-11.2-15.6-20.9-5.4-7.8-12.5-17.4-16.3-22.5-2.7,3.3-6.6,8.1-9.1,10.5A19,19,0,0,1,163,183a18.1,18.1,0,0,1-11-3.6c-7.7-6-7.7-13.9-5-27.2,1-5.1.4-9.4-.1-13.6-.8-6-1.6-12.3,2.5-19.7,5.6-10.2,14.8-18.4,17.6-20.7,1.6-4.6,9.2-24.3,18.7-32s30.7-10,31.5-10l4.2-.3m-8.6,7.8c-6.2.9-16.6,3.1-22.7,8s-14.7,23.5-16.8,29.7l-.4,1-.8.6c-.1.1-10.8,8.7-16.6,19.2-3,5.5-2.4,9.9-1.7,15.5a48.2,48.2,0,0,1,.7,11.4c8.1,0,19.4,3,25,13.6l2.1-2.6,2.8-3.6h0c1.8-2.6,3.5-6.1,3.4-9.2a3.5,3.5,0,0,1,3.3-3.7h.2a3.5,3.5,0,0,1,3.4,3.3c.4,6.3-3.4,12.3-5.9,15.4,3.5,4.6,11.6,15.5,17.6,24.2,7.5,11.1,15.8,21,15.9,21.1l.6.8.2,1c3.1,23.6-7.4,57.8-11.6,70.3h6.4c4-5.2,18.2-24.3,21.3-34,3.7-11.7,8-30,8-30.2l.8-3.4,3.5.8c.1.1,15.2,3.7,27.9,3.7s33-4.3,33.2-4.3l2.7-.6,1.2,2.5c9.4,19.1-.6,53-4.8,65.5h6.4c3.3-4.1,13.6-17.6,19.1-31.3,6.8-16.9,11.7-56.2,11.7-70.2s-15-32.3-29.8-34.5a54.8,54.8,0,0,0-7-.4c-8.3,0-18.9,1.3-28.5,2.6s-16.7,2.1-22.5,2.1h-2.5c-9.3-.6-23.5-11.8-37.2-22.5-7.1-5.6-13.8-10.9-18.8-13.9-7.1-4.2-17.1-6.6-17.2-6.6l-6.5-1.5,5-4.5c7-6.2,24.1-23.3,28.9-35.2M163,176.1a10.7,10.7,0,0,0,7.3-2.6c1.1-1.1,2.7-2.9,4.2-4.7-3.9-11.1-14.5-12.7-20.1-12.7h-1.1c-2.1,11.6-.7,14.8,3,17.8a11.4,11.4,0,0,0,6.7,2.2M237.1,40.8l-16.7,1.1-4.1.3c-4.2.3-25.7,2.2-39.3,13.1-10.5,8.4-18.2,25.2-21.9,34.7-4.9,4.5-12.6,12.4-18,22.1-6.3,11.5-5,21.6-4.1,28.3.5,3.6.8,6.2.3,9-1.4,6.8-2.6,14.1-1.6,21.1a30.5,30.5,0,0,0,11.7,20A31.4,31.4,0,0,0,163,197a32.1,32.1,0,0,0,20.2-6.9l5.8,8.2c5.1,7.4,10.2,14.1,13.6,18.4.7,19.8-8.5,49.9-12.4,60.4l-1.8,4.7-7,18.9h46.8l4.2-5.4,1.1-1.3c3.5-4.5,21.2-27.7,25.7-42,1.5-4.7,3.1-10.3,4.4-15.5a118.7,118.7,0,0,0,15.8,1.1,148.5,148.5,0,0,0,20-1.7c-.3,12.8-4.8,30-9,41l-1.9,4.7-7.3,19.1H328l4.2-5,1-1.3c1.6-1.9,15.8-19.1,23.5-38.2,2.7-6.7,4.9-15.5,6.8-24.6l1.8.7a17.1,17.1,0,0,0,5.5.9,17.5,17.5,0,0,0,7.1-33.5,10.7,10.7,0,0,1-1.4-5.2c-1.3-19.2-5.3-34-11.8-43.9-4.7-6.9-9.8-10.5-14-12.3-8.6-8.5-18.6-13.9-28.6-15.4a83.9,83.9,0,0,0-10-.6c-9.7,0-21.1,1.4-31.2,2.7-7.5,1-15.3,2-19.7,2h-.7c-5.1-1.6-19.2-12.7-26.1-18.1S222,99.1,216.6,95.5c11.1-12.9,17.2-24.3,18.2-34l.5-4.1ZM167.9,137c-.1-.4-.1-.7-.2-1.1-.6-5.1-.6-5.7.1-6.9a58.4,58.4,0,0,1,9.3-11.7l5.1,1.2c2.3.6,9,2.5,13.3,5.1s10.8,7.7,17.3,12.8c16,12.6,31.2,24.6,44.8,25.5h3.5c6.8,0,15.3-1.1,24.3-2.2s19.3-2.5,26.7-2.5l4.9.2c2.7.4,7.4,3.2,11.8,8.5s6.1,10.2,6.1,12.2c0,7-1.4,21.2-3.7,35.1a48.7,48.7,0,0,0-2.1-5.3l-1.2-2.4-4.8-9.9-10.8,2.3-2.6.6c-5.3,1.1-21,4-30.3,4-10.9,0-24.5-3.2-24.6-3.3l-3.4-.8-13.8-3.3-1.6,7.1-2.3-2.8-.7-.8h0c-.3-.3-8.1-9.7-15.1-20-3.8-5.6-8.5-12-12.2-17.1a33.5,33.5,0,0,0,3-15.3,17.5,17.5,0,0,0-17.4-16.6h-1.1a17.8,17.8,0,0,0-12,5.8,16.5,16.5,0,0,0-2.9,4.5,42,42,0,0,0-7.4-2.9Z" transform="translate(0 -40.8)"/><path class="a" d="M37.9,414.8l-7.7-28.6-7.9,28.6c-.6,2.2-1,3.7-1.4,4.7A6.4,6.4,0,0,1,19,422a4.9,4.9,0,0,1-3.5,1.1,6.7,6.7,0,0,1-3-.6,5.5,5.5,0,0,1-1.8-1.9,11,11,0,0,1-1.2-2.9c-.3-1.1-.6-2.2-.8-3.1l-8-32.2a17.7,17.7,0,0,1-.7-4.3A4.2,4.2,0,0,1,1.3,375a4.6,4.6,0,0,1,3.2-1.3c1.8,0,3,.6,3.6,1.7a22.6,22.6,0,0,1,1.6,5l6.2,27.8,7-26c.6-2,1-3.6,1.4-4.6a5.6,5.6,0,0,1,2.1-2.7,5.6,5.6,0,0,1,3.8-1.2,5.6,5.6,0,0,1,3.8,1.2,6.1,6.1,0,0,1,1.8,2.6,31.5,31.5,0,0,1,1.4,4.7l7.1,26,6.3-27.8c.3-1.5.6-2.6.8-3.5a7.4,7.4,0,0,1,1.4-2.2,4.4,4.4,0,0,1,2.9-1,4.6,4.6,0,0,1,3.2,1.3,4,4,0,0,1,1.3,3.1,18.4,18.4,0,0,1-.7,4.3l-7.9,32.2c-.6,2.1-1,3.7-1.4,4.7a5.4,5.4,0,0,1-1.8,2.7,5.2,5.2,0,0,1-3.6,1.1,5.2,5.2,0,0,1-3.6-1.1,4.9,4.9,0,0,1-1.8-2.5A38.1,38.1,0,0,1,37.9,414.8Z" transform="translate(0 -40.8)"/><path class="a" d="M91.5,418.1a31,31,0,0,1-6.3,3.8,17.8,17.8,0,0,1-6.7,1.2,13.3,13.3,0,0,1-6.1-1.3,9.3,9.3,0,0,1-3.9-3.7,8.8,8.8,0,0,1-1.4-5,8.7,8.7,0,0,1,2.3-6.2,11.5,11.5,0,0,1,6.3-3.5l4.2-.9,5.8-1.2,5.2-1.4a9.8,9.8,0,0,0-1.4-5.2c-.9-1.1-2.6-1.6-5.2-1.6a11.1,11.1,0,0,0-5.1.9,8.3,8.3,0,0,0-3,2.9l-1.7,2.5a2.9,2.9,0,0,1-2.2.6,3.7,3.7,0,0,1-2.6-1,3,3,0,0,1-1-2.4,7.6,7.6,0,0,1,1.6-4.6,11.8,11.8,0,0,1,5.2-3.7,24.6,24.6,0,0,1,8.8-1.4,25.4,25.4,0,0,1,9.2,1.4,8.5,8.5,0,0,1,4.7,4.4,19.3,19.3,0,0,1,1.4,7.9v5.3c0,1.5,0,3.1-.1,4.9a16.3,16.3,0,0,0,.9,5.2,20,20,0,0,1,.8,3.5,3.1,3.1,0,0,1-1.3,2.5,3.9,3.9,0,0,1-2.9,1.1,4.1,4.1,0,0,1-2.7-1.2A22,22,0,0,1,91.5,418.1Zm-.6-12.8-5.7,1.5L80,407.9a9.1,9.1,0,0,0-2.7,1.5,3.6,3.6,0,0,0-1.3,3.1,4.6,4.6,0,0,0,1.5,3.4,5.9,5.9,0,0,0,4,1.4,10.2,10.2,0,0,0,4.9-1.2,7.3,7.3,0,0,0,3.3-2.9c.8-1.4,1.2-3.6,1.2-6.7Z" transform="translate(0 -40.8)"/><path class="a" d="M112.1,387.8h.9v-5.4a29.6,29.6,0,0,1,.2-3.4,3.7,3.7,0,0,1,.6-2.1,2.9,2.9,0,0,1,1.5-1.4,4,4,0,0,1,2.2-.6,4.1,4.1,0,0,1,3,1.3,3.7,3.7,0,0,1,1.2,2,28.7,28.7,0,0,1,.2,3.5v6.1h3.3a4.4,4.4,0,0,1,2.9.9,3,3,0,0,1,1,2.2,2.7,2.7,0,0,1-1.5,2.6,9.9,9.9,0,0,1-4,.7h-1.7v16.3a23.3,23.3,0,0,0,.2,3.2,3,3,0,0,0,.8,1.9,2.8,2.8,0,0,0,2,.7l2.1-.3,2.1-.3a2.8,2.8,0,0,1,2,.9,3,3,0,0,1,.8,2.1,3.6,3.6,0,0,1-2.3,3.3c-1.6.8-3.8,1.1-6.8,1.1s-4.8-.4-6.3-1.4a6.3,6.3,0,0,1-2.8-3.8,29.2,29.2,0,0,1-.7-6.7v-17h-1.1a4.5,4.5,0,0,1-3-.9,3.3,3.3,0,0,1-1-2.4,2.8,2.8,0,0,1,1.1-2.2A4.6,4.6,0,0,1,112.1,387.8Z" transform="translate(0 -40.8)"/><path class="a" d="M164.6,407.2H147.2a13,13,0,0,0,1.2,5.4,9.1,9.1,0,0,0,3.2,3.5,9.3,9.3,0,0,0,4.4,1.1,13.6,13.6,0,0,0,2.9-.3,14.2,14.2,0,0,0,2.5-1.2,13.7,13.7,0,0,0,2.3-1.7l2.7-2.5a3,3,0,0,1,2-.6,3.3,3.3,0,0,1,2.2.8,2.9,2.9,0,0,1,.8,2.1,6,6,0,0,1-.9,2.8,10.4,10.4,0,0,1-2.9,3.1,15.4,15.4,0,0,1-4.8,2.5,21.9,21.9,0,0,1-6.6.9c-5.7,0-10.1-1.6-13.3-4.8s-4.8-7.7-4.8-13.3a21.5,21.5,0,0,1,1.2-7.3,15.9,15.9,0,0,1,3.4-5.8,15.7,15.7,0,0,1,5.6-3.7,19,19,0,0,1,7.3-1.3,17,17,0,0,1,8.9,2.2,14.6,14.6,0,0,1,5.6,5.7,15.3,15.3,0,0,1,1.8,7.1c0,2.2-.6,3.7-1.9,4.3A11.6,11.6,0,0,1,164.6,407.2Zm-17.4-5h16.1c-.2-3.1-1-5.3-2.4-6.8a7.8,7.8,0,0,0-11.1,0A11.5,11.5,0,0,0,147.2,402.2Z" transform="translate(0 -40.8)"/><path class="a" d="M192.9,410.3v7.4a5.6,5.6,0,0,1-1.3,4.1,4.6,4.6,0,0,1-6.4,0,6.1,6.1,0,0,1-1.2-4.1V393c0-4,1.4-6,4.3-6s2.6.4,3.2,1.4a7.4,7.4,0,0,1,1.1,4.1,12.9,12.9,0,0,1,3.3-4.1,6.3,6.3,0,0,1,4.4-1.4,11,11,0,0,1,5.5,1.4c1.7.9,2.6,2.1,2.6,3.7a3.7,3.7,0,0,1-1.1,2.7,3.6,3.6,0,0,1-2.4,1,11,11,0,0,1-2.4-.6,10.5,10.5,0,0,0-3.3-.6,4.8,4.8,0,0,0-3.2,1.1,6,6,0,0,0-1.9,3,21.4,21.4,0,0,0-1,4.8C193,405.4,192.9,407.6,192.9,410.3Z" transform="translate(0 -40.8)"/><path class="a" d="M234.6,415.1,227,384.7v33a5.6,5.6,0,0,1-1.3,4.1,4.6,4.6,0,0,1-6.4,0,6.1,6.1,0,0,1-1.2-4.1V379.9c0-2.1.5-3.5,1.6-4.2a7.2,7.2,0,0,1,4.4-1.1h3a9.6,9.6,0,0,1,3.9.5,3.3,3.3,0,0,1,1.8,1.7,26.6,26.6,0,0,1,1.4,4.1l6.9,26.2,6.9-26.2a26.6,26.6,0,0,1,1.4-4.1,3.3,3.3,0,0,1,1.8-1.7,9.6,9.6,0,0,1,3.9-.5h3a7.2,7.2,0,0,1,4.4,1.1c1.1.7,1.6,2.1,1.6,4.2v37.8a6.1,6.1,0,0,1-1.2,4.1,4.2,4.2,0,0,1-3.3,1.3,4,4,0,0,1-3.1-1.3,6.1,6.1,0,0,1-1.3-4.1v-33l-7.6,30.4c-.5,2-.9,3.4-1.2,4.4a6.9,6.9,0,0,1-1.8,2.5,4.8,4.8,0,0,1-3.5,1.1,4.9,4.9,0,0,1-4.7-2.6,9.3,9.3,0,0,1-1-2.5C235.1,417.1,234.9,416.1,234.6,415.1Z" transform="translate(0 -40.8)"/><path class="a" d="M301.2,418.1V417a21.8,21.8,0,0,1-3.4,3.4,12.7,12.7,0,0,1-3.8,2,17.3,17.3,0,0,1-4.8.7,12.1,12.1,0,0,1-5.8-1.4,9.7,9.7,0,0,1-3.9-3.6c-1.2-1.9-1.7-4.6-1.7-8.2V392.3a5.8,5.8,0,0,1,1.2-4,4.1,4.1,0,0,1,3.2-1.3,4.4,4.4,0,0,1,3.3,1.3,5.8,5.8,0,0,1,1.2,4v14.2a24.7,24.7,0,0,0,.5,5.2,6.7,6.7,0,0,0,1.9,3.3,5.2,5.2,0,0,0,3.6,1.2,7.5,7.5,0,0,0,4.3-1.3,8.2,8.2,0,0,0,2.9-3.5c.5-1.3.7-4,.7-8.3V392.3a5.4,5.4,0,0,1,1.3-4,4.6,4.6,0,0,1,6.4,0,5.8,5.8,0,0,1,1.2,4v25.8a5.6,5.6,0,0,1-1.2,3.8,3.7,3.7,0,0,1-2.9,1.2,3.9,3.9,0,0,1-3.1-1.3A5.8,5.8,0,0,1,301.2,418.1Z" transform="translate(0 -40.8)"/><path class="a" d="M323,417.7V379.2a6.7,6.7,0,0,1,1.1-4.1,4.2,4.2,0,0,1,3.3-1.4,4.2,4.2,0,0,1,3.2,1.4,6.1,6.1,0,0,1,1.3,4.1v38.5a6.1,6.1,0,0,1-1.3,4.1,4.1,4.1,0,0,1-3.2,1.3,3.9,3.9,0,0,1-3.2-1.4A5.8,5.8,0,0,1,323,417.7Z" transform="translate(0 -40.8)"/><path class="a" d="M370.5,407.2H353.1a11.6,11.6,0,0,0,1.2,5.4,8.4,8.4,0,0,0,3.2,3.5,8.9,8.9,0,0,0,4.3,1.1,12.9,12.9,0,0,0,2.9-.3,12.3,12.3,0,0,0,2.6-1.2l2.3-1.7,2.7-2.5a2.7,2.7,0,0,1,1.9-.6,3.1,3.1,0,0,1,2.2.8,2.6,2.6,0,0,1,.9,2.1,5.3,5.3,0,0,1-1,2.8,10,10,0,0,1-2.8,3.1,18,18,0,0,1-4.8,2.5,21.9,21.9,0,0,1-6.6.9c-5.7,0-10.2-1.6-13.4-4.8S344,410.6,344,405a21.5,21.5,0,0,1,1.2-7.3,14.6,14.6,0,0,1,3.4-5.8,15.3,15.3,0,0,1,5.5-3.7,19,19,0,0,1,7.3-1.3,17.2,17.2,0,0,1,9,2.2,15,15,0,0,1,5.5,5.7,14.3,14.3,0,0,1,1.9,7.1c0,2.2-.6,3.7-1.9,4.3A11.6,11.6,0,0,1,370.5,407.2Zm-17.4-5h16.1c-.2-3.1-1-5.3-2.5-6.8a7.4,7.4,0,0,0-5.6-2.3,7.1,7.1,0,0,0-5.4,2.3C354.2,396.9,353.4,399.2,353.1,402.2Z" transform="translate(0 -40.8)"/></svg>